<?xml version="1.0" standalone="no"?><!DOCTYPE svg PUBLIC "-//W3C//DTD SVG 1.1//EN" "http://www.w3.org/Graphics/SVG/1.1/DTD/svg11.dtd"><svg t="1489877843323" class="icon" style="" viewBox="0 0 1024 1024" version="1.1" xmlns="http://www.w3.org/2000/svg" p-id="44533" xmlns:xlink="http://www.w3.org/1999/xlink" width="32" height="32"><defs><style type="text/css"></style></defs><path d="M482.645 489.105c18.736 17.966 49.106 17.966 67.843 0l293.979-281.954c12.989-12.46 16.358-30.173 11.335-45.92l-300.059 249.41c-3.908 3.246-8.35 5.702-12.976 7.772-15.957 10.003-36.75 9.966-52.656-0.144-4.506-2.050-8.835-4.459-12.647-7.629l-300.122-249.465c-5.049 15.76-1.681 33.501 11.321 45.974l293.981 281.953zM91.293 390.027l381.715 368.303c24.328 23.471 63.762 23.471 88.090 0l381.713-368.303c16.866-16.272 21.24-39.411 14.721-59.981l-389.611 325.793c-5.069 4.243-10.841 7.448-16.846 10.153-20.72 13.068-47.72 13.016-68.372-0.188-5.848-2.682-11.468-5.822-16.422-9.965l-389.688-325.865c-6.557 20.587-2.184 43.764 14.7 60.052z" p-id="44534" fill="#ffffff"></path></svg>