<?xml version="1.0" standalone="no"?><!DOCTYPE svg PUBLIC "-//W3C//DTD SVG 1.1//EN" "http://www.w3.org/Graphics/SVG/1.1/DTD/svg11.dtd"><svg t="1489877877882" class="icon" style="" viewBox="0 0 1024 1024" version="1.1" xmlns="http://www.w3.org/2000/svg" p-id="45390" xmlns:xlink="http://www.w3.org/1999/xlink" width="32" height="32"><defs><style type="text/css"></style></defs><path d="M541.354562 534.895453c-18.735713-17.966187-49.106418-17.966187-67.842131 0L179.532933 816.849056c-12.988826 12.459776-16.35755 30.173207-11.335163 45.918819l300.057937-249.41042c3.908006-3.245927 8.349155-5.701862 12.975523-7.772011 15.957437-10.002818 36.749996-9.965979 52.656267 0.143263 4.50664 2.049682 8.834202 4.458545 12.647041 7.628748l300.122405 249.464655c5.048993-15.759939 1.681292-33.500998-11.32186-45.974078L541.354562 534.895453zM932.706761 633.972982 550.992059 265.669732c-24.328082-23.470551-63.762209-23.470551-88.090291 0L81.190137 633.972982c-16.866133 16.271592-21.239743 39.410592-14.721283 59.981093l389.610532-325.793064c5.069459-4.242627 10.839883-7.447623 16.845667-10.153244 20.719904-13.06762 47.719838-13.016455 68.37118 0.188288 5.849218 2.682086 11.468193 5.821589 16.422018 9.964956l389.688303 325.864696C953.9639 673.437809 949.59029 650.26197 932.706761 633.972982z" p-id="45391" fill="#ffffff"></path></svg>